<mxfile host="Electron" agent="Mozilla/5.0 (Windows NT 10.0; Win64; x64) AppleWebKit/537.36 (KHTML, like Gecko) draw.io/26.2.2 Chrome/134.0.6998.178 Electron/35.1.2 Safari/537.36" version="26.2.2">
  <diagram name="Страница — 1" id="YyMgwq1S4yU92JCaJYVl">
    <mxGraphModel dx="1412" dy="825" grid="1" gridSize="10" guides="1" tooltips="1" connect="1" arrows="1" fold="1" page="1" pageScale="1" pageWidth="827" pageHeight="1169" background="#ffffff" math="0" shadow="1">
      <root>
        <mxCell id="0" />
        <mxCell id="1" parent="0" />
        <mxCell id="ocUA0q3PJtiMqVXixpYX-107" value="" style="verticalAlign=top;verticalLabelPosition=bottom;labelPosition=center;align=center;html=1;outlineConnect=0;fillColor=#f8cecc;strokeColor=#b85450;gradientDirection=north;strokeWidth=2;shape=mxgraph.networks.firewall;labelBackgroundColor=none;" parent="1" vertex="1">
          <mxGeometry x="700" y="415" width="100" height="100" as="geometry" />
        </mxCell>
        <mxCell id="ocUA0q3PJtiMqVXixpYX-1" value="" style="whiteSpace=wrap;html=1;aspect=fixed;labelBackgroundColor=none;fillColor=#5D7F99;strokeColor=#D0CEE2;fontColor=#1A1A1A;rounded=1;shadow=1;glass=0;" parent="1" vertex="1">
          <mxGeometry x="80" y="120" width="180" height="180" as="geometry" />
        </mxCell>
        <mxCell id="ocUA0q3PJtiMqVXixpYX-3" value="" style="endArrow=none;html=1;rounded=0;exitX=0;exitY=0.25;exitDx=0;exitDy=0;entryX=1;entryY=0.25;entryDx=0;entryDy=0;labelBackgroundColor=none;strokeColor=#736CA8;fontColor=default;" parent="1" source="ocUA0q3PJtiMqVXixpYX-1" target="ocUA0q3PJtiMqVXixpYX-1" edge="1">
          <mxGeometry width="50" height="50" relative="1" as="geometry">
            <mxPoint x="220" y="300" as="sourcePoint" />
            <mxPoint x="270" y="250" as="targetPoint" />
          </mxGeometry>
        </mxCell>
        <mxCell id="ocUA0q3PJtiMqVXixpYX-4" value="" style="whiteSpace=wrap;html=1;aspect=fixed;labelBackgroundColor=none;fillColor=#5D7F99;strokeColor=#D0CEE2;fontColor=#1A1A1A;rounded=1;shadow=1;glass=0;" parent="1" vertex="1">
          <mxGeometry x="410" y="105" width="195" height="195" as="geometry" />
        </mxCell>
        <mxCell id="ocUA0q3PJtiMqVXixpYX-5" value="" style="endArrow=none;html=1;rounded=0;exitX=0.47;exitY=0.988;exitDx=0;exitDy=0;exitPerimeter=0;labelBackgroundColor=none;strokeColor=#736CA8;fontColor=default;" parent="1" source="ocUA0q3PJtiMqVXixpYX-4" edge="1">
          <mxGeometry width="50" height="50" relative="1" as="geometry">
            <mxPoint x="500" y="300" as="sourcePoint" />
            <mxPoint x="500" y="150" as="targetPoint" />
          </mxGeometry>
        </mxCell>
        <mxCell id="ocUA0q3PJtiMqVXixpYX-26" value="&lt;b&gt;Restaurant&lt;/b&gt;" style="edgeLabel;html=1;align=center;verticalAlign=middle;resizable=0;points=[];labelBackgroundColor=none;fontColor=#1A1A1A;" parent="ocUA0q3PJtiMqVXixpYX-5" vertex="1" connectable="0">
          <mxGeometry x="0.5236" y="1" relative="1" as="geometry">
            <mxPoint x="1" y="-61" as="offset" />
          </mxGeometry>
        </mxCell>
        <mxCell id="ocUA0q3PJtiMqVXixpYX-6" value="" style="endArrow=none;html=1;rounded=0;exitX=0;exitY=0.25;exitDx=0;exitDy=0;entryX=1;entryY=0.25;entryDx=0;entryDy=0;labelBackgroundColor=none;strokeColor=#736CA8;fontColor=default;" parent="1" source="ocUA0q3PJtiMqVXixpYX-4" target="ocUA0q3PJtiMqVXixpYX-4" edge="1">
          <mxGeometry width="50" height="50" relative="1" as="geometry">
            <mxPoint x="550" y="300" as="sourcePoint" />
            <mxPoint x="600" y="250" as="targetPoint" />
          </mxGeometry>
        </mxCell>
        <mxCell id="ocUA0q3PJtiMqVXixpYX-7" value="" style="whiteSpace=wrap;html=1;aspect=fixed;labelBackgroundColor=none;fillColor=#5D7F99;strokeColor=#D0CEE2;fontColor=#1A1A1A;rounded=1;shadow=1;glass=0;" parent="1" vertex="1">
          <mxGeometry x="410" y="390" width="180" height="180" as="geometry" />
        </mxCell>
        <mxCell id="ocUA0q3PJtiMqVXixpYX-8" value="" style="endArrow=none;html=1;rounded=0;exitX=0.5;exitY=1;exitDx=0;exitDy=0;labelBackgroundColor=none;strokeColor=#736CA8;fontColor=default;" parent="1" source="ocUA0q3PJtiMqVXixpYX-7" edge="1">
          <mxGeometry width="50" height="50" relative="1" as="geometry">
            <mxPoint x="560" y="600" as="sourcePoint" />
            <mxPoint x="500" y="430" as="targetPoint" />
          </mxGeometry>
        </mxCell>
        <mxCell id="ocUA0q3PJtiMqVXixpYX-9" value="" style="endArrow=none;html=1;rounded=0;exitX=0;exitY=0.25;exitDx=0;exitDy=0;entryX=1;entryY=0.25;entryDx=0;entryDy=0;labelBackgroundColor=none;strokeColor=#736CA8;fontColor=default;" parent="1" source="ocUA0q3PJtiMqVXixpYX-7" target="ocUA0q3PJtiMqVXixpYX-7" edge="1">
          <mxGeometry width="50" height="50" relative="1" as="geometry">
            <mxPoint x="550" y="570" as="sourcePoint" />
            <mxPoint x="600" y="520" as="targetPoint" />
          </mxGeometry>
        </mxCell>
        <mxCell id="ocUA0q3PJtiMqVXixpYX-10" value="" style="whiteSpace=wrap;html=1;aspect=fixed;labelBackgroundColor=none;fillColor=#5D7F99;strokeColor=#D0CEE2;fontColor=#1A1A1A;rounded=1;shadow=1;glass=0;" parent="1" vertex="1">
          <mxGeometry x="80" y="350" width="180" height="180" as="geometry" />
        </mxCell>
        <mxCell id="ocUA0q3PJtiMqVXixpYX-11" value="" style="endArrow=none;html=1;rounded=0;exitX=0.5;exitY=1;exitDx=0;exitDy=0;labelBackgroundColor=none;strokeColor=#736CA8;fontColor=default;" parent="1" source="ocUA0q3PJtiMqVXixpYX-10" edge="1">
          <mxGeometry width="50" height="50" relative="1" as="geometry">
            <mxPoint x="230" y="575" as="sourcePoint" />
            <mxPoint x="170" y="400" as="targetPoint" />
          </mxGeometry>
        </mxCell>
        <mxCell id="ocUA0q3PJtiMqVXixpYX-12" value="" style="endArrow=none;html=1;rounded=0;exitX=0;exitY=0.25;exitDx=0;exitDy=0;entryX=1;entryY=0.25;entryDx=0;entryDy=0;labelBackgroundColor=none;strokeColor=#736CA8;fontColor=default;" parent="1" source="ocUA0q3PJtiMqVXixpYX-10" target="ocUA0q3PJtiMqVXixpYX-10" edge="1">
          <mxGeometry width="50" height="50" relative="1" as="geometry">
            <mxPoint x="220" y="545" as="sourcePoint" />
            <mxPoint x="270" y="495" as="targetPoint" />
          </mxGeometry>
        </mxCell>
        <mxCell id="ocUA0q3PJtiMqVXixpYX-13" value="" style="endArrow=none;html=1;rounded=0;entryX=0;entryY=1;entryDx=0;entryDy=0;labelBackgroundColor=none;strokeColor=#736CA8;fontColor=default;" parent="1" target="ocUA0q3PJtiMqVXixpYX-4" edge="1">
          <mxGeometry width="50" height="50" relative="1" as="geometry">
            <mxPoint x="260" y="405" as="sourcePoint" />
            <mxPoint x="310" y="355" as="targetPoint" />
            <Array as="points">
              <mxPoint x="290" y="380" />
            </Array>
          </mxGeometry>
        </mxCell>
        <mxCell id="ocUA0q3PJtiMqVXixpYX-14" value="1" style="endArrow=none;html=1;rounded=0;entryX=-0.017;entryY=0.417;entryDx=0;entryDy=0;entryPerimeter=0;labelBackgroundColor=none;strokeColor=#736CA8;fontColor=default;" parent="1" target="ocUA0q3PJtiMqVXixpYX-4" edge="1">
          <mxGeometry x="-1" width="50" height="50" relative="1" as="geometry">
            <mxPoint x="270" y="180" as="sourcePoint" />
            <mxPoint x="410" y="160" as="targetPoint" />
            <mxPoint as="offset" />
          </mxGeometry>
        </mxCell>
        <mxCell id="ocUA0q3PJtiMqVXixpYX-19" value="" style="endArrow=none;html=1;rounded=0;exitX=0.5;exitY=1;exitDx=0;exitDy=0;labelBackgroundColor=none;strokeColor=#736CA8;fontColor=default;" parent="1" edge="1">
          <mxGeometry width="50" height="50" relative="1" as="geometry">
            <mxPoint x="169.66000000000003" y="300" as="sourcePoint" />
            <mxPoint x="170" y="170" as="targetPoint" />
          </mxGeometry>
        </mxCell>
        <mxCell id="ocUA0q3PJtiMqVXixpYX-31" value="&lt;b&gt;User&lt;/b&gt;" style="edgeLabel;html=1;align=center;verticalAlign=middle;resizable=0;points=[];labelBackgroundColor=none;fontColor=#1A1A1A;" parent="ocUA0q3PJtiMqVXixpYX-19" vertex="1" connectable="0">
          <mxGeometry x="0.5203" y="-1" relative="1" as="geometry">
            <mxPoint x="-1" y="-61" as="offset" />
          </mxGeometry>
        </mxCell>
        <mxCell id="ocUA0q3PJtiMqVXixpYX-36" value="&lt;b&gt;Booking&lt;/b&gt;" style="text;html=1;align=center;verticalAlign=middle;resizable=0;points=[];autosize=1;strokeColor=none;fillColor=none;labelBackgroundColor=none;fontColor=#1A1A1A;" parent="1" vertex="1">
          <mxGeometry x="135" y="360" width="70" height="30" as="geometry" />
        </mxCell>
        <mxCell id="ocUA0q3PJtiMqVXixpYX-38" value="&lt;b&gt;Table&lt;/b&gt;" style="text;html=1;align=center;verticalAlign=middle;resizable=0;points=[];autosize=1;strokeColor=none;fillColor=none;labelBackgroundColor=none;fontColor=#1A1A1A;" parent="1" vertex="1">
          <mxGeometry x="475" y="400" width="50" height="30" as="geometry" />
        </mxCell>
        <mxCell id="ocUA0q3PJtiMqVXixpYX-41" value="1" style="endArrow=none;html=1;rounded=0;entryX=1.011;entryY=0.437;entryDx=0;entryDy=0;entryPerimeter=0;labelBackgroundColor=none;strokeColor=#736CA8;fontColor=default;" parent="1" target="ocUA0q3PJtiMqVXixpYX-10" edge="1">
          <mxGeometry x="-1" width="50" height="50" relative="1" as="geometry">
            <mxPoint x="400" y="484" as="sourcePoint" />
            <mxPoint x="410" y="470" as="targetPoint" />
            <mxPoint as="offset" />
            <Array as="points">
              <mxPoint x="400" y="480" />
            </Array>
          </mxGeometry>
        </mxCell>
        <mxCell id="ocUA0q3PJtiMqVXixpYX-42" value="1:N" style="endArrow=none;html=1;rounded=0;labelBackgroundColor=none;strokeColor=#736CA8;fontColor=default;" parent="1" edge="1">
          <mxGeometry x="1" y="10" width="50" height="50" relative="1" as="geometry">
            <mxPoint x="160" y="330" as="sourcePoint" />
            <mxPoint x="160.33" y="320" as="targetPoint" />
            <mxPoint x="10" y="-10" as="offset" />
          </mxGeometry>
        </mxCell>
        <mxCell id="ocUA0q3PJtiMqVXixpYX-46" value="1:N" style="edgeLabel;html=1;align=center;verticalAlign=middle;resizable=0;points=[];labelBackgroundColor=none;fontColor=#1A1A1A;" parent="ocUA0q3PJtiMqVXixpYX-42" vertex="1" connectable="0">
          <mxGeometry x="-0.1333" relative="1" as="geometry">
            <mxPoint y="13" as="offset" />
          </mxGeometry>
        </mxCell>
        <mxCell id="ocUA0q3PJtiMqVXixpYX-47" value="N" style="endArrow=none;html=1;rounded=0;labelBackgroundColor=none;strokeColor=#736CA8;fontColor=default;" parent="1" edge="1">
          <mxGeometry x="1" y="10" width="50" height="50" relative="1" as="geometry">
            <mxPoint x="499.58" y="380" as="sourcePoint" />
            <mxPoint x="499.58" y="320" as="targetPoint" />
            <mxPoint x="10" y="-10" as="offset" />
          </mxGeometry>
        </mxCell>
        <mxCell id="ocUA0q3PJtiMqVXixpYX-48" value="1:N" style="edgeLabel;html=1;align=center;verticalAlign=middle;resizable=0;points=[];labelBackgroundColor=none;fontColor=#1A1A1A;" parent="ocUA0q3PJtiMqVXixpYX-47" vertex="1" connectable="0">
          <mxGeometry x="-0.1333" relative="1" as="geometry">
            <mxPoint y="30" as="offset" />
          </mxGeometry>
        </mxCell>
        <mxCell id="ocUA0q3PJtiMqVXixpYX-49" value="&lt;br&gt;&lt;table data-end=&quot;546&quot; data-start=&quot;246&quot;&gt;&lt;thead data-end=&quot;285&quot; data-start=&quot;246&quot;&gt;&lt;tr data-end=&quot;285&quot; data-start=&quot;246&quot;&gt;&lt;th data-end=&quot;255&quot; data-start=&quot;246&quot;&gt;Запись&lt;/th&gt;&lt;th data-end=&quot;270&quot; data-start=&quot;255&quot;&gt;Что означает&lt;/th&gt;&lt;th data-end=&quot;285&quot; data-start=&quot;270&quot;&gt;Расшифровка&lt;/th&gt;&lt;/tr&gt;&lt;/thead&gt;&lt;tbody data-end=&quot;546&quot; data-start=&quot;326&quot;&gt;&lt;tr data-end=&quot;399&quot; data-start=&quot;326&quot;&gt;&lt;td&gt;&lt;code data-end=&quot;331&quot; data-start=&quot;328&quot;&gt;&lt;b&gt;N&lt;/b&gt;&lt;/code&gt;&lt;/td&gt;&lt;td&gt;Много&lt;/td&gt;&lt;td&gt;Например, «у этой сущности может быть &lt;strong data-end=&quot;389&quot; data-start=&quot;380&quot;&gt;много&lt;/strong&gt; других»&lt;/td&gt;&lt;/tr&gt;&lt;tr data-end=&quot;478&quot; data-start=&quot;400&quot;&gt;&lt;td&gt;&lt;code data-end=&quot;407&quot; data-start=&quot;402&quot;&gt;&lt;b&gt;1:N&lt;/b&gt;&lt;/code&gt;&lt;/td&gt;&lt;td&gt;Один ко многим&lt;/td&gt;&lt;td&gt;Чётко указано: одна сущность связана с множеством&lt;/td&gt;&lt;/tr&gt;&lt;/tbody&gt;&lt;/table&gt;&lt;div&gt;&lt;br/&gt;&lt;/div&gt;" style="text;whiteSpace=wrap;html=1;labelBackgroundColor=none;fontColor=#1A1A1A;" parent="1" vertex="1">
          <mxGeometry y="650" width="440" height="190" as="geometry" />
        </mxCell>
        <mxCell id="ocUA0q3PJtiMqVXixpYX-50" value="id" style="text;html=1;align=center;verticalAlign=middle;resizable=0;points=[];autosize=1;strokeColor=none;fillColor=none;labelBackgroundColor=none;fontColor=#1A1A1A;" parent="1" vertex="1">
          <mxGeometry x="105" y="170" width="30" height="30" as="geometry" />
        </mxCell>
        <mxCell id="ocUA0q3PJtiMqVXixpYX-51" value="name" style="text;html=1;align=center;verticalAlign=middle;resizable=0;points=[];autosize=1;strokeColor=none;fillColor=none;labelBackgroundColor=none;fontColor=#1A1A1A;" parent="1" vertex="1">
          <mxGeometry x="95" y="195" width="50" height="30" as="geometry" />
        </mxCell>
        <mxCell id="ocUA0q3PJtiMqVXixpYX-52" value="email" style="text;html=1;align=center;verticalAlign=middle;resizable=0;points=[];autosize=1;strokeColor=none;fillColor=none;labelBackgroundColor=none;fontColor=#1A1A1A;" parent="1" vertex="1">
          <mxGeometry x="96" y="225" width="50" height="30" as="geometry" />
        </mxCell>
        <mxCell id="ocUA0q3PJtiMqVXixpYX-53" value="password" style="text;html=1;align=center;verticalAlign=middle;resizable=0;points=[];autosize=1;strokeColor=none;fillColor=none;labelBackgroundColor=none;fontColor=#1A1A1A;" parent="1" vertex="1">
          <mxGeometry x="86" y="255" width="70" height="30" as="geometry" />
        </mxCell>
        <mxCell id="ocUA0q3PJtiMqVXixpYX-54" value="integer" style="text;html=1;align=center;verticalAlign=middle;resizable=0;points=[];autosize=1;strokeColor=none;fillColor=none;labelBackgroundColor=none;fontColor=#1A1A1A;" parent="1" vertex="1">
          <mxGeometry x="185" y="170" width="60" height="30" as="geometry" />
        </mxCell>
        <mxCell id="ocUA0q3PJtiMqVXixpYX-55" value="integer" style="text;html=1;align=center;verticalAlign=middle;resizable=0;points=[];autosize=1;strokeColor=none;fillColor=none;labelBackgroundColor=none;fontColor=#1A1A1A;" parent="1" vertex="1">
          <mxGeometry x="185" y="195" width="60" height="30" as="geometry" />
        </mxCell>
        <mxCell id="ocUA0q3PJtiMqVXixpYX-56" value="integer" style="text;html=1;align=center;verticalAlign=middle;resizable=0;points=[];autosize=1;strokeColor=none;fillColor=none;labelBackgroundColor=none;fontColor=#1A1A1A;" parent="1" vertex="1">
          <mxGeometry x="185" y="225" width="60" height="30" as="geometry" />
        </mxCell>
        <mxCell id="ocUA0q3PJtiMqVXixpYX-57" value="integer" style="text;html=1;align=center;verticalAlign=middle;resizable=0;points=[];autosize=1;strokeColor=none;fillColor=none;labelBackgroundColor=none;fontColor=#1A1A1A;" parent="1" vertex="1">
          <mxGeometry x="185" y="255" width="60" height="30" as="geometry" />
        </mxCell>
        <mxCell id="ocUA0q3PJtiMqVXixpYX-65" value="capacity" style="text;html=1;align=center;verticalAlign=middle;resizable=0;points=[];autosize=1;strokeColor=none;fillColor=none;labelBackgroundColor=none;fontColor=#1A1A1A;" parent="1" vertex="1">
          <mxGeometry x="415" y="265" width="70" height="30" as="geometry" />
        </mxCell>
        <mxCell id="ocUA0q3PJtiMqVXixpYX-66" value="integer" style="text;html=1;align=center;verticalAlign=middle;resizable=0;points=[];autosize=1;strokeColor=none;fillColor=none;labelBackgroundColor=none;fontColor=#1A1A1A;" parent="1" vertex="1">
          <mxGeometry x="520" y="160" width="60" height="30" as="geometry" />
        </mxCell>
        <mxCell id="ocUA0q3PJtiMqVXixpYX-67" value="varchar" style="text;html=1;align=center;verticalAlign=middle;resizable=0;points=[];autosize=1;strokeColor=none;fillColor=none;labelBackgroundColor=none;fontColor=#1A1A1A;" parent="1" vertex="1">
          <mxGeometry x="520" y="187.5" width="60" height="30" as="geometry" />
        </mxCell>
        <mxCell id="ocUA0q3PJtiMqVXixpYX-68" value="varchar" style="text;html=1;align=center;verticalAlign=middle;resizable=0;points=[];autosize=1;strokeColor=none;fillColor=none;labelBackgroundColor=none;fontColor=#1A1A1A;" parent="1" vertex="1">
          <mxGeometry x="520" y="210" width="60" height="30" as="geometry" />
        </mxCell>
        <mxCell id="ocUA0q3PJtiMqVXixpYX-69" value="varchar" style="text;html=1;align=center;verticalAlign=middle;resizable=0;points=[];autosize=1;strokeColor=none;fillColor=none;labelBackgroundColor=none;fontColor=#1A1A1A;" parent="1" vertex="1">
          <mxGeometry x="520" y="240" width="60" height="30" as="geometry" />
        </mxCell>
        <mxCell id="ocUA0q3PJtiMqVXixpYX-70" value="integer" style="text;html=1;align=center;verticalAlign=middle;resizable=0;points=[];autosize=1;strokeColor=none;fillColor=none;labelBackgroundColor=none;fontColor=#1A1A1A;" parent="1" vertex="1">
          <mxGeometry x="520" y="265" width="60" height="30" as="geometry" />
        </mxCell>
        <mxCell id="ocUA0q3PJtiMqVXixpYX-71" value="integer" style="text;html=1;align=center;verticalAlign=middle;resizable=0;points=[];autosize=1;strokeColor=none;fillColor=none;labelBackgroundColor=none;fontColor=#1A1A1A;" parent="1" vertex="1">
          <mxGeometry x="515" y="430" width="60" height="30" as="geometry" />
        </mxCell>
        <mxCell id="ocUA0q3PJtiMqVXixpYX-72" value="integer" style="text;html=1;align=center;verticalAlign=middle;resizable=0;points=[];autosize=1;strokeColor=none;fillColor=none;labelBackgroundColor=none;fontColor=#1A1A1A;" parent="1" vertex="1">
          <mxGeometry x="515" y="450" width="60" height="30" as="geometry" />
        </mxCell>
        <mxCell id="ocUA0q3PJtiMqVXixpYX-73" value="integer" style="text;html=1;align=center;verticalAlign=middle;resizable=0;points=[];autosize=1;strokeColor=none;fillColor=none;labelBackgroundColor=none;fontColor=#1A1A1A;" parent="1" vertex="1">
          <mxGeometry x="515" y="470" width="60" height="30" as="geometry" />
        </mxCell>
        <mxCell id="ocUA0q3PJtiMqVXixpYX-74" value="integer" style="text;html=1;align=center;verticalAlign=middle;resizable=0;points=[];autosize=1;strokeColor=none;fillColor=none;labelBackgroundColor=none;fontColor=#1A1A1A;" parent="1" vertex="1">
          <mxGeometry x="515" y="495" width="60" height="30" as="geometry" />
        </mxCell>
        <mxCell id="ocUA0q3PJtiMqVXixpYX-75" value="integer" style="text;html=1;align=center;verticalAlign=middle;resizable=0;points=[];autosize=1;strokeColor=none;fillColor=none;labelBackgroundColor=none;fontColor=#1A1A1A;" parent="1" vertex="1">
          <mxGeometry x="515" y="525" width="60" height="30" as="geometry" />
        </mxCell>
        <mxCell id="ocUA0q3PJtiMqVXixpYX-77" value="intager" style="text;html=1;align=center;verticalAlign=middle;resizable=0;points=[];autosize=1;strokeColor=none;fillColor=none;labelBackgroundColor=none;fontColor=#1A1A1A;" parent="1" vertex="1">
          <mxGeometry x="185" y="400" width="60" height="30" as="geometry" />
        </mxCell>
        <mxCell id="ocUA0q3PJtiMqVXixpYX-78" value="integer" style="text;html=1;align=center;verticalAlign=middle;resizable=0;points=[];autosize=1;strokeColor=none;fillColor=none;labelBackgroundColor=none;fontColor=#1A1A1A;" parent="1" vertex="1">
          <mxGeometry x="185" y="440" width="60" height="30" as="geometry" />
        </mxCell>
        <mxCell id="ocUA0q3PJtiMqVXixpYX-79" value="date" style="text;html=1;align=center;verticalAlign=middle;resizable=0;points=[];autosize=1;strokeColor=none;fillColor=none;labelBackgroundColor=none;fontColor=#1A1A1A;" parent="1" vertex="1">
          <mxGeometry x="190" y="465" width="50" height="30" as="geometry" />
        </mxCell>
        <mxCell id="ocUA0q3PJtiMqVXixpYX-80" value="varchar" style="text;html=1;align=center;verticalAlign=middle;resizable=0;points=[];autosize=1;strokeColor=none;fillColor=none;labelBackgroundColor=none;fontColor=#1A1A1A;" parent="1" vertex="1">
          <mxGeometry x="185" y="490" width="60" height="30" as="geometry" />
        </mxCell>
        <mxCell id="ocUA0q3PJtiMqVXixpYX-81" value="integer" style="text;html=1;align=center;verticalAlign=middle;resizable=0;points=[];autosize=1;strokeColor=none;fillColor=none;labelBackgroundColor=none;fontColor=#1A1A1A;" parent="1" vertex="1">
          <mxGeometry x="185" y="420" width="60" height="30" as="geometry" />
        </mxCell>
        <mxCell id="ocUA0q3PJtiMqVXixpYX-87" value="id" style="text;html=1;align=center;verticalAlign=middle;resizable=0;points=[];autosize=1;strokeColor=none;fillColor=none;labelBackgroundColor=none;fontColor=#1A1A1A;" parent="1" vertex="1">
          <mxGeometry x="115" y="400" width="30" height="30" as="geometry" />
        </mxCell>
        <mxCell id="ocUA0q3PJtiMqVXixpYX-88" value="table_id" style="text;html=1;align=center;verticalAlign=middle;resizable=0;points=[];autosize=1;strokeColor=none;fillColor=none;labelBackgroundColor=none;fontColor=#1A1A1A;" parent="1" vertex="1">
          <mxGeometry x="95" y="440" width="70" height="30" as="geometry" />
        </mxCell>
        <mxCell id="ocUA0q3PJtiMqVXixpYX-89" value="date" style="text;html=1;align=center;verticalAlign=middle;resizable=0;points=[];autosize=1;strokeColor=none;fillColor=none;labelBackgroundColor=none;fontColor=#1A1A1A;" parent="1" vertex="1">
          <mxGeometry x="105" y="465" width="50" height="30" as="geometry" />
        </mxCell>
        <mxCell id="ocUA0q3PJtiMqVXixpYX-90" value="status" style="text;html=1;align=center;verticalAlign=middle;resizable=0;points=[];autosize=1;strokeColor=none;fillColor=none;labelBackgroundColor=none;fontColor=#1A1A1A;" parent="1" vertex="1">
          <mxGeometry x="100" y="490" width="60" height="30" as="geometry" />
        </mxCell>
        <mxCell id="ocUA0q3PJtiMqVXixpYX-91" value="user_id" style="text;html=1;align=center;verticalAlign=middle;resizable=0;points=[];autosize=1;strokeColor=none;fillColor=none;labelBackgroundColor=none;fontColor=#1A1A1A;" parent="1" vertex="1">
          <mxGeometry x="100" y="420" width="60" height="30" as="geometry" />
        </mxCell>
        <mxCell id="ocUA0q3PJtiMqVXixpYX-92" value="id" style="text;html=1;align=center;verticalAlign=middle;resizable=0;points=[];autosize=1;strokeColor=none;fillColor=none;labelBackgroundColor=none;fontColor=#1A1A1A;" parent="1" vertex="1">
          <mxGeometry x="435" y="430" width="30" height="30" as="geometry" />
        </mxCell>
        <mxCell id="ocUA0q3PJtiMqVXixpYX-93" value="number" style="text;html=1;align=center;verticalAlign=middle;resizable=0;points=[];autosize=1;strokeColor=none;fillColor=none;labelBackgroundColor=none;fontColor=#1A1A1A;" parent="1" vertex="1">
          <mxGeometry x="420" y="470" width="60" height="30" as="geometry" />
        </mxCell>
        <mxCell id="ocUA0q3PJtiMqVXixpYX-94" value="seats" style="text;html=1;align=center;verticalAlign=middle;resizable=0;points=[];autosize=1;strokeColor=none;fillColor=none;labelBackgroundColor=none;fontColor=#1A1A1A;" parent="1" vertex="1">
          <mxGeometry x="425" y="495" width="50" height="30" as="geometry" />
        </mxCell>
        <mxCell id="ocUA0q3PJtiMqVXixpYX-95" value="status" style="text;html=1;align=center;verticalAlign=middle;resizable=0;points=[];autosize=1;strokeColor=none;fillColor=none;labelBackgroundColor=none;fontColor=#1A1A1A;" parent="1" vertex="1">
          <mxGeometry x="420" y="520" width="60" height="30" as="geometry" />
        </mxCell>
        <mxCell id="ocUA0q3PJtiMqVXixpYX-96" value="&lt;font style=&quot;font-size: 10px;&quot;&gt;restaraurant_id&lt;/font&gt;" style="text;html=1;align=center;verticalAlign=middle;resizable=0;points=[];autosize=1;strokeColor=none;fillColor=none;labelBackgroundColor=none;fontColor=#1A1A1A;" parent="1" vertex="1">
          <mxGeometry x="410" y="450" width="90" height="30" as="geometry" />
        </mxCell>
        <mxCell id="ocUA0q3PJtiMqVXixpYX-97" value="description" style="text;html=1;align=center;verticalAlign=middle;resizable=0;points=[];autosize=1;strokeColor=none;fillColor=none;labelBackgroundColor=none;fontColor=#1A1A1A;" parent="1" vertex="1">
          <mxGeometry x="410" y="240" width="80" height="30" as="geometry" />
        </mxCell>
        <mxCell id="ocUA0q3PJtiMqVXixpYX-98" value="location" style="text;html=1;align=center;verticalAlign=middle;resizable=0;points=[];autosize=1;strokeColor=none;fillColor=none;labelBackgroundColor=none;fontColor=#1A1A1A;" parent="1" vertex="1">
          <mxGeometry x="419" y="210" width="60" height="30" as="geometry" />
        </mxCell>
        <mxCell id="ocUA0q3PJtiMqVXixpYX-99" value="name" style="text;html=1;align=center;verticalAlign=middle;resizable=0;points=[];autosize=1;strokeColor=none;fillColor=none;labelBackgroundColor=none;fontColor=#1A1A1A;" parent="1" vertex="1">
          <mxGeometry x="424" y="187.5" width="50" height="30" as="geometry" />
        </mxCell>
        <mxCell id="ocUA0q3PJtiMqVXixpYX-100" value="id" style="text;html=1;align=center;verticalAlign=middle;resizable=0;points=[];autosize=1;strokeColor=none;fillColor=none;labelBackgroundColor=none;fontColor=#1A1A1A;" parent="1" vertex="1">
          <mxGeometry x="435" y="160" width="30" height="30" as="geometry" />
        </mxCell>
        <mxCell id="ocUA0q3PJtiMqVXixpYX-102" value="" style="verticalAlign=top;verticalLabelPosition=bottom;labelPosition=center;align=center;html=1;outlineConnect=0;fillColor=#fff2cc;strokeColor=#d6b656;gradientDirection=north;strokeWidth=2;shape=mxgraph.networks.biometric_reader;labelBackgroundColor=none;" parent="1" vertex="1">
          <mxGeometry x="540" y="655" width="60" height="100" as="geometry" />
        </mxCell>
        <mxCell id="ocUA0q3PJtiMqVXixpYX-103" value="" style="fontColor=#1A1A1A;verticalAlign=top;verticalLabelPosition=bottom;labelPosition=center;align=center;html=1;outlineConnect=0;fillColor=#5D7F99;strokeColor=#D0CEE2;gradientDirection=north;strokeWidth=2;shape=mxgraph.networks.phone_2;labelBackgroundColor=none;" parent="1" vertex="1">
          <mxGeometry x="670" y="940" width="100" height="90" as="geometry" />
        </mxCell>
        <mxCell id="ocUA0q3PJtiMqVXixpYX-105" value="" style="fontColor=#1A1A1A;verticalAlign=top;verticalLabelPosition=bottom;labelPosition=center;align=center;html=1;outlineConnect=0;fillColor=#5D7F99;strokeColor=#E0E0E2;gradientDirection=north;strokeWidth=2;shape=mxgraph.networks.storage;labelBackgroundColor=none;" parent="1" vertex="1">
          <mxGeometry x="700" y="20" width="100" height="100" as="geometry" />
        </mxCell>
        <mxCell id="ocUA0q3PJtiMqVXixpYX-106" value="" style="fontColor=#1A1A1A;verticalAlign=top;verticalLabelPosition=bottom;labelPosition=center;align=center;html=1;outlineConnect=0;fillColor=#5D7F99;strokeColor=#D0CEE2;gradientDirection=north;strokeWidth=2;shape=mxgraph.networks.monitor;labelBackgroundColor=none;" parent="1" vertex="1">
          <mxGeometry x="40" y="10" width="80" height="65" as="geometry" />
        </mxCell>
        <mxCell id="ocUA0q3PJtiMqVXixpYX-108" value="" style="fontColor=#1A1A1A;verticalAlign=top;verticalLabelPosition=bottom;labelPosition=center;align=center;html=1;outlineConnect=0;fillColor=#1A1A1A;strokeColor=#D0CEE2;gradientDirection=north;strokeWidth=2;shape=mxgraph.networks.unsecure;labelBackgroundColor=none;" parent="1" vertex="1">
          <mxGeometry x="15" y="555" width="80" height="100" as="geometry" />
        </mxCell>
        <mxCell id="ocUA0q3PJtiMqVXixpYX-110" value="" style="fontColor=#1A1A1A;verticalAlign=top;verticalLabelPosition=bottom;labelPosition=center;align=center;html=1;outlineConnect=0;fillColor=#5D7F99;strokeColor=#D0CEE2;gradientDirection=north;strokeWidth=2;shape=mxgraph.networks.users;labelBackgroundColor=none;" parent="1" vertex="1">
          <mxGeometry x="474" y="890" width="90" height="100" as="geometry" />
        </mxCell>
        <mxCell id="ocUA0q3PJtiMqVXixpYX-113" style="edgeStyle=orthogonalEdgeStyle;rounded=0;orthogonalLoop=1;jettySize=auto;html=1;exitX=0.5;exitY=0;exitDx=0;exitDy=0;exitPerimeter=0;strokeColor=#736CA8;fontColor=default;labelBackgroundColor=none;" parent="1" source="ocUA0q3PJtiMqVXixpYX-111" target="ocUA0q3PJtiMqVXixpYX-110" edge="1">
          <mxGeometry relative="1" as="geometry" />
        </mxCell>
        <mxCell id="ocUA0q3PJtiMqVXixpYX-111" value="" style="fontColor=#1A1A1A;verticalAlign=top;verticalLabelPosition=bottom;labelPosition=center;align=center;html=1;outlineConnect=0;fillColor=#5D7F99;strokeColor=#D0CEE2;gradientDirection=north;strokeWidth=2;shape=mxgraph.networks.user_male;labelBackgroundColor=none;" parent="1" vertex="1">
          <mxGeometry x="290" y="920" width="40" height="100" as="geometry" />
        </mxCell>
      </root>
    </mxGraphModel>
  </diagram>
</mxfile>
